# xmcd
#
# Track frame offsets:
# 150
# 11332
# 25031
# 33718
# 48122
# 69399
# 85396
# 97653
# 112899
# 125991
# 138550
# 151302
# 164463
# 179281
# 191590
# 206235
# 219134
# 230468
# 242544
# 254553
#
# Disc length: 3567 seconds
#
#
# Revision: 0
# Processed by: cddbd v1.5.1PL2 Copyright (c) Steve Scherf et al.
# Submitted via: FreeRIP 2.944 
#
DISCID=0c0ded14
DTITLE=Chaqueño Palavecino - 20 Grandes Exitos
DYEAR=2005
DGENRE=Folklore
TTITLE0=A Don Amancio
TTITLE1=Silencio de Aloja
TTITLE2=Mataco Díaz
TTITLE3=Juan de la Calle
TTITLE4=Vidala para mi Sombra
TTITLE5=Tu Piel, Mi Piel
TTITLE6=Copla - Mi Voz
TTITLE7=Dejando Huellas
TTITLE8=Noche Calurosa
TTITLE9=Salteño Viejo
TTITLE10=El Teorema
TTITLE11=Cueca del Violín
TTITLE12=Dulcemente me Recuerdas
TTITLE13=Que me Olvides Tú
TTITLE14=Amor Salvaje
TTITLE15=La Yapa
TTITLE16=La Sin Corazón
TTITLE17=Mujer
TTITLE18=Pilcomayeño
TTITLE19=La Ley y La Trampa
EXTD=
EXTT0=
EXTT1=
EXTT2=
EXTT3=
EXTT4=
EXTT5=
EXTT6=
EXTT7=
EXTT8=
EXTT9=
EXTT10=
EXTT11=
EXTT12=
EXTT13=
EXTT14=
EXTT15=
EXTT16=
EXTT17=
EXTT18=
EXTT19=
PLAYORDER=
